<svg width="182" height="32" viewBox="0 0 182 32" fill="none" xmlns="http://www.w3.org/2000/svg">
<path fill-rule="evenodd" clip-rule="evenodd" d="M36.0427 15.9226V15.5312C37.8052 15.1484 39.1299 13.4925 39.1299 11.6237C39.1299 8.53333 36.4291 6.86021 32.8266 6.86021H30.8987H8V25.1398H27.8093H32.3114C37.8439 25.1398 39.9006 23.4667 39.9006 20.1204C39.9006 18.0237 38.7413 16.243 36.0405 15.9226H36.0427ZM20.0891 11.7527H25.4048C25.8793 11.7527 26.2636 12.1376 26.2636 12.6129V12.9527C26.2636 13.428 25.8793 13.8129 25.4048 13.8129H20.0891V11.7527ZM26.7788 19.1312C26.7788 19.6065 26.3945 19.9914 25.9201 19.9914H20.0891V17.9312H25.9201C26.3945 17.9312 26.7788 18.3161 26.7788 18.7914V19.1312Z" fill="white"/>
<path fill-rule="evenodd" clip-rule="evenodd" d="M74.1027 15.357H83.3643V25.1398H95.4578V15.357H104.722V6.86021H74.1027V15.357Z" fill="white"/>
<path fill-rule="evenodd" clip-rule="evenodd" d="M159.723 6.86021L157.058 11.4172L154.394 6.86021H139.948L151.013 21.2774V25.1398H163.104V21.2774L174.169 6.86021H159.723Z" fill="white"/>
<path fill-rule="evenodd" clip-rule="evenodd" d="M42.9792 25.1398H71.0262V19.9914H55.0727V17.9312H71.0262V13.8108H55.0727V11.7527H71.0262V6.86021H42.9792V25.1398Z" fill="white"/>
<path fill-rule="evenodd" clip-rule="evenodd" d="M135.845 15.9226V15.5312C137.608 15.1484 138.934 13.4925 138.934 11.6237C138.934 8.53333 136.234 6.86021 132.631 6.86021H130.703H107.805V25.1398H127.614H132.116C137.648 25.1398 139.705 23.4667 139.705 20.1204C139.705 18.0237 138.546 16.243 135.845 15.9226ZM126.536 14.7763L121.631 21.6839C121.562 21.7785 121.433 21.8151 121.326 21.7656C121.216 21.7183 121.158 21.6 121.184 21.486L121.925 17.3699L118.341 17.3462C118.247 17.3462 118.161 17.2946 118.118 17.2129C118.075 17.129 118.084 17.0323 118.138 16.957L123.043 10.0495C123.112 9.95484 123.239 9.92043 123.348 9.96774C123.455 10.0151 123.515 10.1312 123.49 10.2473L122.721 14.3871H126.33C126.422 14.3871 126.51 14.4387 126.553 14.5204C126.596 14.6021 126.59 14.7011 126.534 14.7763H126.536Z" fill="white"/>
</svg>
