<svg width="24" height="24" viewBox="0 0 24 24" fill="none" xmlns="http://www.w3.org/2000/svg">
<g clip-path="url(#clip0)">
<path d="M0 0V24H24V0H0Z" fill="#012169"/>
<path d="M-1.21289 0.433111L10.9217 12.0722L-1.21289 23.7114L-0.866784 24.0722L-0.520674 24.4331L11.644 12.765L23.8087 24.4331L24.1548 24.0722L24.5009 23.7114L12.3663 12.0722L24.5009 0.433111L24.1548 0.0722683L23.8087 -0.288574L11.644 11.3794L-0.520674 -0.288574L-0.866784 0.0722683L-1.21289 0.433111Z" fill="black" stroke="white"/>
<path d="M23.7089 25.9576L24.3282 26.5632L24.5428 25.724L25.2844 22.8242L25.356 22.5445L25.1495 22.3427L14.5673 12.0001L25.1495 1.65746L25.356 1.45568L25.2844 1.176L24.5428 -1.72382L24.3282 -2.56299L23.7089 -1.95745L12 9.49043L0.291138 -1.95745L-0.328207 -2.56299L-0.542819 -1.72382L-1.28443 1.176L-1.35596 1.45568L-1.1495 1.65746L9.43269 12.0001L-1.1495 22.3427L-1.35596 22.5445L-1.28443 22.8242L-0.542819 25.724L-0.328207 26.5632L0.291138 25.9576L12 14.5097L23.7089 25.9576Z" fill="#C8102E" stroke="white"/>
<path d="M12 -0.012207V23.9878V-0.012207ZM-12 11.9878H36H-12Z" fill="black"/>
<path d="M16 23.9878H8V15.9878H0V7.98779H8V-0.012207H16V7.98779H24V15.9878H16V23.9878Z" fill="white"/>
<path d="M12 -0.012207V23.9878V-0.012207ZM-12 11.9878H36H-12Z" fill="black"/>
<path d="M14.4 23.9878H9.6V14.3878H0V9.58779H9.6V-0.012207H14.4V9.58779H24V14.3878H14.4V23.9878Z" fill="#C8102E"/>
</g>
<defs>
<clipPath id="clip0">
<rect width="24" height="24" fill="white"/>
</clipPath>
</defs>
</svg>
